<svg width="204" height="55" viewBox="0 0 204 55" fill="none" xmlns="http://www.w3.org/2000/svg">
<rect width="55" height="55" rx="10" fill="#010101"/>
<path d="M33.5819 9.03091C31.4048 9.37123 29.4635 11.5931 28.7341 14.5772C28.551 15.3309 28.4761 15.9075 28.4512 16.7203C28.4151 18.0028 28.6287 19.1812 29.0946 20.2275C29.3664 20.8378 29.677 21.3047 30.1069 21.7406C30.6754 22.3172 31.2578 22.6434 31.9928 22.8009C32.3367 22.874 32.9967 22.8684 33.3517 22.7897C34.0562 22.6322 34.6746 22.3228 35.3042 21.8165C36.555 20.804 37.5062 19.184 37.9805 17.2547C38.1912 16.394 38.2717 15.6487 38.2523 14.7094C38.2245 13.4156 37.9971 12.4031 37.5062 11.4187C37.2289 10.859 36.9959 10.53 36.5827 10.1109C36.0308 9.54841 35.4595 9.22216 34.755 9.06748C34.5193 9.01404 33.8232 8.99154 33.5819 9.03091Z" fill="#FFA800"/>
<path d="M21.7732 9.74821C21.2906 9.8129 20.9717 9.90571 20.6361 10.0745C19.4851 10.6595 18.6115 11.9026 18.1955 13.5451C18.0014 14.3045 17.9265 14.9345 17.9293 15.7923C17.9293 17.2716 18.2288 18.6329 18.8306 19.8985C19.1967 20.6663 19.6155 21.2823 20.123 21.7998C20.8524 22.5395 21.64 22.9698 22.4942 23.0879C23.5454 23.237 24.6436 22.7757 25.4423 21.8532C26.1995 20.9757 26.6959 19.7691 26.9095 18.2813C26.9788 17.7863 26.9816 16.3407 26.9095 15.8485C26.6238 13.8629 25.9138 12.2485 24.8405 11.1263C23.9863 10.2376 23.1183 9.79602 22.1337 9.74821C21.9812 9.74258 21.8203 9.74258 21.7732 9.74821Z" fill="#FFA800"/>
<path d="M13.0647 18.6356C12.4712 18.72 12.069 18.8831 11.6419 19.2094C10.821 19.8366 10.2663 20.9475 10.0666 22.3734C10.0056 22.7953 9.9973 23.8894 10.0528 24.3422C10.136 25.0397 10.2941 25.7794 10.4993 26.4094C11.2814 28.8084 12.8816 30.7069 14.59 31.2694C14.9783 31.3987 15.1891 31.4297 15.63 31.4297C15.9573 31.4269 16.0793 31.4156 16.2818 31.3622C16.5563 31.2919 16.9668 31.1062 17.172 30.9628C17.9208 30.4425 18.4422 29.6016 18.7362 28.4484C18.8915 27.8409 18.9165 27.5737 18.9165 26.6344C18.9137 25.8356 18.9082 25.7428 18.8388 25.3097C18.7085 24.5025 18.5254 23.8247 18.2453 23.1047C17.3329 20.7647 15.6633 19.0462 13.9577 18.6919C13.7386 18.6441 13.22 18.6131 13.0647 18.6356Z" fill="#FFA800"/>
<path d="M41.2337 20.4328C39.2535 20.7956 37.362 23.009 36.6299 25.8187C36.2749 27.1772 36.2388 28.6003 36.5272 29.759C36.8795 31.1709 37.681 32.1665 38.7321 32.5069C39.0233 32.6025 39.2257 32.6334 39.5502 32.6334C39.9135 32.6334 40.177 32.5912 40.5348 32.4787C41.242 32.2537 41.9131 31.8122 42.551 31.1569C42.9337 30.7659 43.1528 30.4903 43.4634 30.0178C44.2317 28.8534 44.7336 27.4865 44.9333 26.0156C44.9943 25.5769 45.0027 24.4406 44.95 24.0609C44.8168 23.1131 44.5811 22.41 44.1845 21.7968C43.6936 21.0375 42.9809 20.5425 42.1988 20.4187C41.9547 20.3822 41.4805 20.3878 41.2337 20.4328Z" fill="#FFA800"/>
<path d="M26.7929 28.0997C25.5283 28.1841 23.9502 28.5441 23.2291 28.9125C22.7327 29.1657 22.4249 29.4244 21.5235 30.3469C21.1574 30.721 20.7387 31.1288 20.5944 31.2525C20.1812 31.6041 19.3797 32.1357 17.9514 33.0019C15.6467 34.3997 14.9118 34.9453 14.6206 35.4741C14.2767 36.0957 14.0992 36.8916 14.0992 37.8141C14.0964 38.551 14.1796 39.1022 14.3848 39.7238C14.5818 40.3257 14.8064 40.7222 15.2474 41.2453C16.7089 42.9778 19.094 44.0353 22.6329 44.5191C23.8837 44.6907 25.1012 44.7807 28.2351 44.9353C29.4498 44.9944 31.9209 45.0028 32.6448 44.9494C35.5568 44.7385 37.4815 44.1478 38.9902 42.9947C39.3647 42.7078 39.9166 42.1678 40.1384 41.8641C40.5156 41.355 40.6737 40.8066 40.6737 40.0135C40.6737 39.5382 40.6238 39.1444 40.5073 38.6719C40.2133 37.4963 39.8167 36.7875 39.0041 35.9832C38.6186 35.6007 38.3413 35.3728 37.3761 34.6416C36.3722 33.8794 36.0144 33.5785 35.5845 33.1285C35.2101 32.7375 34.9605 32.4113 34.2783 31.4297C33.6986 30.5916 33.3575 30.1613 32.9887 29.7957C32.6032 29.416 32.3009 29.1966 31.8682 28.9828C30.4843 28.2994 28.6234 27.976 26.7929 28.0997Z" fill="#FFA800"/>
<path d="M80.636 18.4C80.9907 18.4 81.4667 18.5587 82.064 18.876C82.68 19.1933 83.212 19.5667 83.66 19.996C84.1267 20.4253 84.36 20.7987 84.36 21.116C84.36 21.284 84.1827 22.0307 83.828 23.356C83.1747 25.708 82.6893 27.7613 82.372 29.516C82.1853 30.6173 81.9893 32.064 81.784 33.856C81.5973 35.3867 81.4293 36.46 81.28 37.076C81.1493 37.692 80.9347 38 80.636 38C80.2067 38 79.6933 37.8507 79.096 37.552C78.5173 37.2347 78.004 36.8613 77.556 36.432C77.1267 36.0027 76.912 35.648 76.912 35.368C76.8933 35.1067 76.9493 34.612 77.08 33.884C77.2293 33.1373 77.3973 32.316 77.584 31.42L77.836 30.216C76.1187 30.4773 74.4293 30.664 72.768 30.776C72.5813 32.0267 72.4507 33.072 72.376 33.912C72.1893 35.424 72.0213 36.488 71.872 37.104C71.7413 37.7013 71.5267 38 71.228 38C70.7987 38 70.2853 37.8507 69.688 37.552C69.1093 37.2347 68.596 36.8613 68.148 36.432C67.7187 36.0027 67.504 35.648 67.504 35.368C67.4853 35.0693 67.5693 34.444 67.756 33.492C67.9613 32.5213 68.092 31.896 68.148 31.616C68.2227 31.2427 68.3627 30.5613 68.568 29.572C68.7733 28.564 68.9413 27.6307 69.072 26.772L69.296 25.456C69.6507 23.3653 69.9773 21.6667 70.276 20.36C70.5933 19.0533 70.9107 18.4 71.228 18.4C71.5827 18.4 72.0587 18.5587 72.656 18.876C73.272 19.1933 73.804 19.5667 74.252 19.996C74.7187 20.4253 74.952 20.7987 74.952 21.116C74.952 21.284 74.7747 22.0307 74.42 23.356C74.3453 23.6547 74.2147 24.1587 74.028 24.868C73.8413 25.5773 73.6733 26.24 73.524 26.856C75.26 26.7253 76.94 26.548 78.564 26.324C78.6013 26.0627 78.6387 25.8573 78.676 25.708C79.012 23.636 79.3387 21.9 79.656 20.5C79.9733 19.1 80.3 18.4 80.636 18.4ZM97.7199 33.884C98.8586 33.324 99.8199 32.7267 100.604 32.092C101.425 32.372 102.032 32.764 102.424 33.268C102.835 33.7533 103.04 34.3133 103.04 34.948C103.04 35.396 102.723 35.8627 102.088 36.348C101.453 36.8147 100.697 37.2067 99.8199 37.524C98.9426 37.8413 98.1959 38 97.5799 38C97.1506 38 96.6559 37.8413 96.0959 37.524C95.5546 37.2067 95.0786 36.8333 94.6679 36.404C94.2759 35.9747 94.0799 35.6387 94.0799 35.396C94.0799 35.2093 94.1546 34.9573 94.3039 34.64C94.4719 34.3227 94.6493 33.996 94.8359 33.66C95.0226 33.324 95.1439 33.1 95.1999 32.988L94.4999 32.596C93.5106 34.22 92.5586 35.5267 91.6439 36.516C90.7479 37.5053 89.8613 38 88.9839 38C88.3866 38 87.7519 37.7387 87.0799 37.216C86.4266 36.6933 85.8666 36.0587 85.3999 35.312C84.9519 34.5653 84.7279 33.9027 84.7279 33.324C84.7279 31.6627 85.0733 29.964 85.7639 28.228C86.4546 26.492 87.4159 25.0547 88.6479 23.916C89.8986 22.7773 91.3079 22.208 92.8759 22.208C93.4359 22.208 94.0053 22.46 94.5839 22.964C95.1626 23.468 95.5359 23.9813 95.7039 24.504C95.7973 24.0933 95.9279 23.7387 96.0959 23.44C96.2826 23.1227 96.4786 22.964 96.6839 22.964C97.1693 22.964 97.7013 23.1413 98.2799 23.496C98.8773 23.832 99.3813 24.2333 99.7919 24.7C100.203 25.148 100.408 25.5027 100.408 25.764C100.389 26.1187 100.24 26.7067 99.9599 27.528C99.6986 28.3493 99.2693 29.6 98.6719 31.28C98.3173 32.1947 97.9999 33.0627 97.7199 33.884ZM89.1239 34.108C90.6359 33.1747 91.9519 32.0267 93.0719 30.664C94.1919 29.2827 94.9573 27.7613 95.3679 26.1C94.8639 25.876 94.3879 25.764 93.9399 25.764C93.0626 25.764 92.2786 26.156 91.5879 26.94C90.8973 27.724 90.3466 28.7507 89.9359 30.02C89.5253 31.2893 89.2546 32.652 89.1239 34.108ZM114.385 22.684C115.375 22.684 116.252 22.9173 117.017 23.384C117.783 23.8507 118.371 24.4947 118.781 25.316C119.211 26.1187 119.425 27.024 119.425 28.032C119.425 29.5253 118.996 31.056 118.137 32.624C117.297 34.1733 116.187 35.4613 114.805 36.488C113.443 37.496 112.024 38 110.549 38C109.915 38 109.28 37.748 108.645 37.244C108.421 38.1773 108.244 39.1293 108.113 40.1C108.001 41.0893 107.936 41.668 107.917 41.836C107.768 43.1053 107.619 44.02 107.469 44.58C107.339 45.14 107.124 45.42 106.825 45.42C106.34 45.42 105.799 45.2613 105.201 44.944C104.623 44.6267 104.128 44.244 103.717 43.796C103.288 43.3667 103.073 42.9933 103.073 42.676C103.073 42.3213 103.232 41.5373 103.549 40.324C103.867 39.1107 104.352 37.356 105.005 35.06C105.584 33.0067 106.032 31.392 106.349 30.216C106.667 29.04 106.825 28.2933 106.825 27.976C106.825 27.8267 106.741 27.6773 106.573 27.528C106.424 27.36 106.172 27.1267 105.817 26.828C105.425 26.5107 105.136 26.2587 104.949 26.072C104.763 25.8853 104.669 25.6893 104.669 25.484C104.669 25.092 104.847 24.6347 105.201 24.112C105.575 23.5893 106.004 23.1413 106.489 22.768C106.993 22.3947 107.423 22.208 107.777 22.208C108.319 22.208 108.935 22.5067 109.625 23.104C110.316 23.7013 110.811 24.2987 111.109 24.896L112.201 23.048C112.929 22.8053 113.657 22.684 114.385 22.684ZM110.549 34.416C111.147 34.416 111.8 34.108 112.509 33.492C113.219 32.8573 113.816 32.0827 114.301 31.168C114.787 30.2347 115.029 29.348 115.029 28.508C115.029 27.892 114.88 27.416 114.581 27.08C114.283 26.744 113.853 26.576 113.293 26.576C112.64 26.576 112.043 26.9493 111.501 27.696C110.979 28.424 110.559 29.32 110.241 30.384C109.943 31.448 109.793 32.428 109.793 33.324C109.793 33.6787 109.859 33.9493 109.989 34.136C110.139 34.3227 110.325 34.416 110.549 34.416ZM130.682 22.684C131.672 22.684 132.549 22.9173 133.314 23.384C134.08 23.8507 134.668 24.4947 135.078 25.316C135.508 26.1187 135.722 27.024 135.722 28.032C135.722 29.5253 135.293 31.056 134.434 32.624C133.594 34.1733 132.484 35.4613 131.102 36.488C129.74 37.496 128.321 38 126.846 38C126.212 38 125.577 37.748 124.942 37.244C124.718 38.1773 124.541 39.1293 124.41 40.1C124.298 41.0893 124.233 41.668 124.214 41.836C124.065 43.1053 123.916 44.02 123.766 44.58C123.636 45.14 123.421 45.42 123.122 45.42C122.637 45.42 122.096 45.2613 121.498 44.944C120.92 44.6267 120.425 44.244 120.014 43.796C119.585 43.3667 119.37 42.9933 119.37 42.676C119.37 42.3213 119.529 41.5373 119.846 40.324C120.164 39.1107 120.649 37.356 121.302 35.06C121.881 33.0067 122.329 31.392 122.646 30.216C122.964 29.04 123.122 28.2933 123.122 27.976C123.122 27.8267 123.038 27.6773 122.87 27.528C122.721 27.36 122.469 27.1267 122.114 26.828C121.722 26.5107 121.433 26.2587 121.246 26.072C121.06 25.8853 120.966 25.6893 120.966 25.484C120.966 25.092 121.144 24.6347 121.498 24.112C121.872 23.5893 122.301 23.1413 122.786 22.768C123.29 22.3947 123.72 22.208 124.074 22.208C124.616 22.208 125.232 22.5067 125.922 23.104C126.613 23.7013 127.108 24.2987 127.406 24.896L128.498 23.048C129.226 22.8053 129.954 22.684 130.682 22.684ZM126.846 34.416C127.444 34.416 128.097 34.108 128.806 33.492C129.516 32.8573 130.113 32.0827 130.598 31.168C131.084 30.2347 131.326 29.348 131.326 28.508C131.326 27.892 131.177 27.416 130.878 27.08C130.58 26.744 130.15 26.576 129.59 26.576C128.937 26.576 128.34 26.9493 127.798 27.696C127.276 28.424 126.856 29.32 126.538 30.384C126.24 31.448 126.09 32.428 126.09 33.324C126.09 33.6787 126.156 33.9493 126.286 34.136C126.436 34.3227 126.622 34.416 126.846 34.416ZM147.063 33.52C145.906 34.4533 144.702 35.284 143.451 36.012C142.2 36.74 141.239 37.104 140.567 37.104C140.287 37.104 139.914 36.9547 139.447 36.656C138.999 36.3387 138.598 35.9653 138.243 35.536C137.907 35.1067 137.739 34.7147 137.739 34.36C137.739 34.024 137.814 33.5853 137.963 33.044C138.131 32.5027 138.392 31.7187 138.747 30.692C139.27 29.236 139.531 28.3307 139.531 27.976C139.531 27.8267 139.438 27.668 139.251 27.5C139.083 27.3133 138.822 27.0893 138.467 26.828C138.056 26.5107 137.748 26.2587 137.543 26.072C137.356 25.8853 137.263 25.6893 137.263 25.484C137.263 25.092 137.44 24.6347 137.795 24.112C138.168 23.5893 138.598 23.1413 139.083 22.768C139.587 22.3947 140.016 22.208 140.371 22.208C140.763 22.208 141.211 22.3853 141.715 22.74C142.238 23.0947 142.686 23.5053 143.059 23.972C143.451 24.42 143.647 24.7653 143.647 25.008C143.647 26.0533 143.498 27.304 143.199 28.76C142.919 30.1973 142.508 31.672 141.967 33.184C143.479 32.4 144.991 31.392 146.503 30.16C146.746 27.7707 146.979 25.9787 147.203 24.784C147.427 23.5707 147.744 22.964 148.155 22.964C148.435 22.964 148.855 23.16 149.415 23.552C149.994 23.9253 150.507 24.3547 150.955 24.84C151.422 25.3067 151.655 25.6707 151.655 25.932C151.655 26.324 151.366 28.1067 150.787 31.28C150.208 34.4347 149.602 37.468 148.967 40.38C148.332 43.3107 147.875 45 147.595 45.448C147.184 46.12 146.512 46.708 145.579 47.212C144.646 47.716 143.74 47.968 142.863 47.968C142.116 47.968 141.314 47.716 140.455 47.212C139.615 46.708 138.906 46.0827 138.327 45.336C137.767 44.608 137.487 43.936 137.487 43.32C137.487 42.4987 138.42 41.2947 140.287 39.708C142.154 38.14 144.58 36.3293 147.567 34.276L147.063 33.52ZM146.615 38.084C143.33 40.66 141.687 42.452 141.687 43.46C141.687 43.8147 141.874 44.1413 142.247 44.44C142.62 44.7387 143.087 44.9347 143.647 45.028C144.263 44.1507 144.776 43.1987 145.187 42.172C145.616 41.164 146.092 39.8013 146.615 38.084ZM170.549 22.684C171.539 22.684 172.416 22.9173 173.181 23.384C173.947 23.8507 174.535 24.4947 174.945 25.316C175.375 26.1187 175.589 27.024 175.589 28.032C175.589 29.5253 175.16 31.056 174.301 32.624C173.461 34.1733 172.351 35.4613 170.969 36.488C169.607 37.496 168.188 38 166.713 38C166.079 38 165.444 37.748 164.809 37.244C164.585 38.1773 164.408 39.1293 164.277 40.1C164.165 41.0893 164.1 41.668 164.081 41.836C163.932 43.1053 163.783 44.02 163.633 44.58C163.503 45.14 163.288 45.42 162.989 45.42C162.504 45.42 161.963 45.2613 161.365 44.944C160.787 44.6267 160.292 44.244 159.881 43.796C159.452 43.3667 159.237 42.9933 159.237 42.676C159.237 42.3213 159.396 41.5373 159.713 40.324C160.031 39.1107 160.516 37.356 161.169 35.06C161.748 33.0067 162.196 31.392 162.513 30.216C162.831 29.04 162.989 28.2933 162.989 27.976C162.989 27.8267 162.905 27.6773 162.737 27.528C162.588 27.36 162.336 27.1267 161.981 26.828C161.589 26.5107 161.3 26.2587 161.113 26.072C160.927 25.8853 160.833 25.6893 160.833 25.484C160.833 25.092 161.011 24.6347 161.365 24.112C161.739 23.5893 162.168 23.1413 162.653 22.768C163.157 22.3947 163.587 22.208 163.941 22.208C164.483 22.208 165.099 22.5067 165.789 23.104C166.48 23.7013 166.975 24.2987 167.273 24.896L168.365 23.048C169.093 22.8053 169.821 22.684 170.549 22.684ZM166.713 34.416C167.311 34.416 167.964 34.108 168.673 33.492C169.383 32.8573 169.98 32.0827 170.465 31.168C170.951 30.2347 171.193 29.348 171.193 28.508C171.193 27.892 171.044 27.416 170.745 27.08C170.447 26.744 170.017 26.576 169.457 26.576C168.804 26.576 168.207 26.9493 167.665 27.696C167.143 28.424 166.723 29.32 166.405 30.384C166.107 31.448 165.957 32.428 165.957 33.324C165.957 33.6787 166.023 33.9493 166.153 34.136C166.303 34.3227 166.489 34.416 166.713 34.416ZM182.926 38C182.03 38 181.097 37.7107 180.126 37.132C179.156 36.5347 178.353 35.8067 177.718 34.948C177.084 34.0893 176.766 33.2773 176.766 32.512C176.766 31.1493 177.084 29.656 177.718 28.032C178.372 26.408 179.268 25.036 180.406 23.916C181.545 22.7773 182.833 22.208 184.27 22.208C185.297 22.208 186.221 22.432 187.042 22.88C187.882 23.328 188.536 23.888 189.002 24.56C189.469 25.232 189.702 25.8853 189.702 26.52C189.702 27.304 189.348 28.0787 188.638 28.844C187.929 29.5907 186.94 30.2533 185.67 30.832C184.401 31.392 182.954 31.7933 181.33 32.036C181.312 32.26 181.302 32.596 181.302 33.044C181.302 33.604 181.321 34.024 181.358 34.304C182.292 34.2107 183.216 33.9587 184.13 33.548C185.045 33.1373 186.044 32.5587 187.126 31.812C187.854 32.036 188.405 32.3907 188.778 32.876C189.152 33.3613 189.338 33.94 189.338 34.612C189.338 35.172 188.993 35.7227 188.302 36.264C187.63 36.7867 186.79 37.2067 185.782 37.524C184.774 37.8413 183.822 38 182.926 38ZM181.75 29.936C182.889 29.5253 183.841 29.0027 184.606 28.368C185.372 27.7333 185.754 27.192 185.754 26.744C185.754 26.2213 185.39 25.8667 184.662 25.68C183.953 26.2027 183.346 26.828 182.842 27.556C182.357 28.284 181.993 29.0773 181.75 29.936ZM197.803 26.996C197.187 29.8147 196.785 32.1107 196.599 33.884C197.793 33.3053 198.755 32.708 199.483 32.092C200.304 32.372 200.911 32.764 201.303 33.268C201.713 33.7533 201.919 34.3133 201.919 34.948C201.919 35.396 201.601 35.8627 200.967 36.348C200.332 36.8147 199.576 37.2067 198.699 37.524C197.821 37.8413 197.075 38 196.459 38C195.917 38 195.311 37.8413 194.639 37.524C193.985 37.188 193.425 36.8053 192.959 36.376C192.492 35.928 192.259 35.5453 192.259 35.228C192.259 34.9667 192.352 34.4067 192.539 33.548C192.744 32.6707 192.921 31.924 193.071 31.308C193.239 30.6733 193.36 30.2067 193.435 29.908L194.107 27.22L192.399 27.332C192.081 27.1827 191.839 26.9493 191.671 26.632C191.503 26.3147 191.419 25.9507 191.419 25.54C191.419 24.7933 191.689 24.1587 192.231 23.636C192.903 23.6733 193.724 23.7107 194.695 23.748C194.695 22.5533 194.825 21.2373 195.087 19.8C195.348 18.344 195.637 17.616 195.955 17.616C196.347 17.616 196.841 17.784 197.439 18.12C198.036 18.456 198.559 18.848 199.007 19.296C199.455 19.744 199.679 20.136 199.679 20.472C199.679 20.9013 199.595 21.34 199.427 21.788C199.277 22.2173 199.025 22.8147 198.671 23.58C198.988 23.5427 199.791 23.412 201.079 23.188L201.723 23.076C202.059 23.2627 202.311 23.5333 202.479 23.888C202.665 24.2427 202.759 24.6253 202.759 25.036C202.759 25.372 202.693 25.6987 202.563 26.016C202.432 26.3333 202.236 26.604 201.975 26.828L197.803 26.996Z" fill="black"/>
</svg>
